<?xml version="1.0" standalone="no"?>
<!DOCTYPE svg PUBLIC "-//W3C//DTD SVG 20010904//EN"
 "http://www.w3.org/TR/2001/REC-SVG-20010904/DTD/svg10.dtd">
<svg version="1.0" xmlns="http://www.w3.org/2000/svg"
 width="965.000000pt" height="301.000000pt" viewBox="0 0 965.000000 301.000000"
 preserveAspectRatio="xMidYMid meet">
<metadata>
Created by potrace 1.16, written by Peter Selinger 2001-2019
</metadata>
<g transform="translate(0.000000,301.000000) scale(0.100000,-0.100000)"
fill="#000000" stroke="none">
<path d="M8383 2999 c-364 -42 -689 -264 -865 -589 -181 -334 -175 -773 15
-1098 l35 -59 -385 -384 c-211 -211 -393 -400 -402 -419 -47 -91 -31 -197 40
-269 72 -71 178 -87 269 -40 19 9 208 191 419 402 l384 385 59 -35 c325 -190
764 -196 1098 -15 222 120 404 317 501 542 186 431 93 926 -236 1255 -183 183
-417 295 -680 325 -102 11 -149 11 -252 -1z m333 -138 c259 -53 496 -215 640
-436 389 -597 55 -1392 -646 -1537 -123 -26 -325 -21 -443 11 -354 94 -634
374 -728 728 -32 118 -37 320 -11 443 82 397 389 708 782 791 116 24 288 24
406 0z m-1002 -1931 l-74 -75 -72 73 -73 72 74 74 73 74 73 -72 73 -71 -74
-75z m-427 -427 c-259 -259 -263 -263 -304 -263 -59 0 -103 44 -103 103 0 40
4 45 262 304 l263 263 72 -72 73 -73 -263 -262z"/>
<path d="M8367 2770 c-212 -36 -426 -162 -558 -327 -70 -89 -141 -229 -171
-338 -30 -114 -31 -346 0 -456 76 -277 270 -502 529 -609 278 -116 607 -84
853 83 133 91 234 206 305 350 72 146 89 224 89 407 -1 140 -3 164 -28 245
-104 341 -385 591 -726 645 -75 11 -223 11 -293 0z m358 -160 c248 -79 429
-260 507 -510 33 -108 33 -302 0 -410 -79 -251 -261 -433 -512 -512 -108 -33
-302 -33 -410 0 -249 78 -433 261 -510 507 -30 95 -37 255 -17 352 33 154 97
272 208 382 109 108 226 173 373 207 90 20 271 12 361 -16z"/>
<path d="M8428 2590 c-32 -4 -78 -13 -103 -20 -38 -11 -45 -17 -43 -34 2 -17
-10 -28 -67 -56 -60 -30 -72 -33 -81 -20 -10 12 -18 10 -54 -15 -80 -55 -169
-175 -131 -175 5 0 -6 -26 -25 -57 -19 -31 -34 -62 -34 -68 0 -5 -10 -15 -22
-20 -25 -12 -34 -38 -48 -155 -9 -69 -9 -86 3 -95 7 -5 16 -18 20 -28 4 -10
21 -24 37 -30 20 -8 33 -21 36 -37 52 -238 224 -418 454 -476 90 -23 261 -15
349 16 89 32 206 114 264 185 94 117 137 239 137 390 0 50 -7 118 -15 150 -59
229 -245 404 -477 448 -33 6 -58 16 -58 23 0 6 -7 17 -15 24 -8 7 -15 20 -15
30 0 18 -21 31 -43 29 -7 -1 -38 -5 -69 -9z m52 -405 c0 -45 0 -45 35 -45 35
0 35 0 35 45 0 45 0 45 35 45 35 0 35 0 35 -45 0 -41 3 -46 33 -59 80 -33 102
-119 46 -175 -17 -17 -37 -31 -45 -31 -26 0 -14 -16 21 -29 68 -24 94 -95 60
-162 -17 -32 -69 -69 -97 -69 -15 0 -18 -9 -18 -45 0 -45 0 -45 -35 -45 -34 0
-35 1 -35 40 0 39 -1 40 -35 40 -34 0 -35 -1 -35 -40 0 -39 -1 -40 -35 -40
-34 0 -35 1 -35 40 l0 40 -65 0 -65 0 0 30 c0 25 4 30 24 30 13 0 27 7 30 16
3 9 6 85 6 169 0 84 -3 160 -6 169 -3 9 -17 16 -30 16 -20 0 -24 5 -24 30 l0
30 65 0 65 0 0 45 c0 45 0 45 35 45 35 0 35 0 35 -45z"/>
<path d="M8450 2005 l0 -65 63 0 c78 0 107 17 107 65 0 48 -29 65 -107 65
l-63 0 0 -65z"/>
<path d="M8450 1795 l0 -75 64 0 c83 0 116 23 116 80 0 54 -25 70 -112 70
l-68 0 0 -75z"/>
<path d="M80 913 l0 -796 348 6 c191 4 372 11 402 17 112 21 169 73 195 178
13 50 16 105 13 270 -3 202 -4 208 -30 262 -30 59 -66 90 -143 119 l-47 18 47
13 c63 18 119 72 135 130 20 73 8 302 -18 370 -27 69 -71 123 -127 155 -78 46
-152 55 -477 55 l-298 0 0 -797z m516 496 c17 -19 19 -37 19 -151 0 -147 -5
-158 -77 -158 l-38 0 0 165 0 165 38 0 c27 0 45 -7 58 -21z m7 -598 c8 -8 12
-67 12 -187 0 -173 0 -176 -24 -195 -13 -10 -38 -19 -57 -19 l-34 0 0 211 0
212 46 -6 c25 -2 51 -10 57 -16z"/>
<path d="M2170 915 l0 -795 210 0 210 0 0 795 0 795 -210 0 -210 0 0 -795z"/>
<path d="M4280 1534 l0 -175 -33 25 c-64 49 -116 66 -208 66 -72 0 -93 -4
-137 -26 -63 -31 -105 -80 -123 -143 -20 -66 -20 -923 -1 -997 17 -66 59 -116
124 -148 43 -22 66 -26 132 -26 90 0 140 18 207 71 l39 31 0 -46 0 -46 200 0
200 0 0 795 0 795 -200 0 -200 0 0 -176z m-13 -354 c20 -37 14 -790 -6 -813
-19 -24 -68 -22 -81 2 -14 27 -14 795 1 822 15 29 69 22 86 -11z"/>
<path d="M1440 1436 c-71 -20 -129 -54 -187 -109 -45 -42 -57 -62 -76 -121
-21 -67 -22 -87 -22 -401 0 -351 6 -406 49 -500 31 -69 85 -121 165 -159 65
-31 68 -31 226 -31 155 0 162 1 222 29 76 35 154 113 190 192 24 53 41 172 43
297 l0 37 -178 0 -179 0 -6 -136 c-7 -148 -19 -184 -61 -184 -12 0 -31 9 -42
21 -18 20 -19 44 -22 410 -2 262 1 396 8 409 14 27 65 27 80 1 5 -11 13 -74
17 -140 l6 -121 190 0 189 0 -7 97 c-13 179 -50 267 -140 335 -85 65 -141 81
-290 84 -85 2 -146 -1 -175 -10z"/>
<path d="M3260 1429 c-25 -11 -62 -37 -84 -57 l-39 -37 7 48 6 47 -205 0 -205
0 0 -655 0 -655 200 0 199 0 3 528 c3 576 2 562 59 562 22 0 32 -6 39 -26 6
-15 10 -231 10 -545 l0 -519 205 0 205 0 0 458 c-1 737 -9 784 -145 848 -67
32 -188 33 -255 3z"/>
<path d="M5096 1439 c-100 -24 -199 -97 -240 -179 -47 -91 -51 -134 -51 -485
0 -313 1 -334 22 -401 38 -121 117 -199 243 -241 44 -14 86 -18 205 -18 184 0
239 17 321 100 93 93 124 185 124 373 l0 92 -195 0 -195 0 0 -137 c0 -164 -8
-187 -63 -191 -32 -3 -38 0 -47 23 -6 14 -10 105 -10 201 l0 174 255 0 255 0
0 129 c0 236 -28 353 -105 438 -84 95 -194 134 -370 132 -60 -1 -127 -5 -149
-10z m204 -248 c5 -11 10 -65 10 -120 l0 -101 -50 0 -50 0 0 101 c0 116 8 139
50 139 19 0 33 -7 40 -19z"/>
<path d="M5780 1419 c0 -6 37 -146 82 -311 l82 -300 -82 -331 c-45 -183 -82
-338 -82 -344 0 -10 40 -13 165 -13 l164 0 10 38 c6 20 26 118 45 217 19 99
35 169 35 155 1 -24 66 -358 77 -392 5 -16 23 -18 200 -18 107 0 194 3 194 6
0 4 -43 159 -95 346 l-95 338 79 310 80 310 -182 -2 -181 -3 -8 -31 c-4 -16
-23 -113 -42 -215 -19 -101 -35 -170 -36 -154 -1 17 -18 113 -38 215 l-37 185
-168 3 c-119 2 -167 -1 -167 -9z"/>
</g>
</svg>
